<svg width="16" height="17" viewBox="0 0 16 17" fill="none" xmlns="http://www.w3.org/2000/svg">
<path d="M10.6666 9.10065V11.9007C10.6666 14.234 9.73325 15.1673 7.39992 15.1673H4.59992C2.26659 15.1673 1.33325 14.234 1.33325 11.9007V9.10065C1.33325 6.76732 2.26659 5.83398 4.59992 5.83398H7.39992C9.73325 5.83398 10.6666 6.76732 10.6666 9.10065Z" stroke="#E5951A" stroke-linecap="round" stroke-linejoin="round"/>
<path d="M14.6666 5.10065V7.90065C14.6666 10.234 13.7333 11.1673 11.3999 11.1673H10.6666V9.10065C10.6666 6.76732 9.73325 5.83398 7.39992 5.83398H5.33325V5.10065C5.33325 2.76732 6.26658 1.83398 8.59992 1.83398H11.3999C13.7333 1.83398 14.6666 2.76732 14.6666 5.10065Z" stroke="#E5951A" stroke-linecap="round" stroke-linejoin="round"/>
</svg>
